{
	"patcher" : 	{
		"fileversion" : 1,
		"appversion" : 		{
			"major" : 8,
			"minor" : 1,
			"revision" : 5,
			"architecture" : "x64",
			"modernui" : 1
		}
,
		"classnamespace" : "box",
		"rect" : [ 34.0, 77.0, 2492.0, 929.0 ],
		"bglocked" : 0,
		"openinpresentation" : 0,
		"default_fontsize" : 12.0,
		"default_fontface" : 0,
		"default_fontname" : "Arial",
		"gridonopen" : 1,
		"gridsize" : [ 15.0, 15.0 ],
		"gridsnaponopen" : 1,
		"objectsnaponopen" : 1,
		"statusbarvisible" : 2,
		"toolbarvisible" : 1,
		"lefttoolbarpinned" : 0,
		"toptoolbarpinned" : 0,
		"righttoolbarpinned" : 0,
		"bottomtoolbarpinned" : 0,
		"toolbars_unpinned_last_save" : 0,
		"tallnewobj" : 0,
		"boxanimatetime" : 200,
		"enablehscroll" : 1,
		"enablevscroll" : 1,
		"devicewidth" : 0.0,
		"description" : "",
		"digest" : "",
		"tags" : "",
		"style" : "",
		"subpatcher_template" : "",
		"assistshowspatchername" : 0,
		"boxes" : [ 			{
				"box" : 				{
					"id" : "obj-218",
					"maxclass" : "comment",
					"numinlets" : 1,
					"numoutlets" : 0,
					"patching_rect" : [ 1846.688772916793823, 2180.105100274085999, 167.684212565422058, 20.0 ],
					"text" : "éteindre la lumiere du journal"
				}

			}
, 			{
				"box" : 				{
					"id" : "obj-198",
					"maxclass" : "comment",
					"numinlets" : 1,
					"numoutlets" : 0,
					"patching_rect" : [ 2438.934077739715576, 2394.841939687728882, 389.99998140335083, 20.0 ],
					"text" : "bang fermeture lumiere téléphone, lumiere poubelle et video poubelle"
				}

			}
, 			{
				"box" : 				{
					"bgcolor" : [ 1.0, 0.345098039215686, 0.298039215686275, 1.0 ],
					"id" : "obj-199",
					"maxclass" : "comment",
					"numinlets" : 1,
					"numoutlets" : 0,
					"patching_rect" : [ 2408.210395812988281, 2362.947202682495117, 177.36841893196106, 20.0 ],
					"text" : "Possibilité d'ajouter petit délais "
				}

			}
, 			{
				"box" : 				{
					"id" : "obj-200",
					"maxclass" : "comment",
					"numinlets" : 1,
					"numoutlets" : 0,
					"patching_rect" : [ 2169.210395812988281, 2117.105100274085999, 354.394738554954529, 20.0 ],
					"text" : "bang vers fermeture lumiere, lumiere téléphone et téléphone"
				}

			}
, 			{
				"box" : 				{
					"bgcolor" : [ 1.0, 0.392156862745098, 0.0, 1.0 ],
					"id" : "obj-201",
					"linecount" : 3,
					"maxclass" : "comment",
					"numinlets" : 1,
					"numoutlets" : 0,
					"patching_rect" : [ 2391.934077739715576, 2257.584549486637115, 150.0, 48.0 ],
					"presentation_linecount" : 3,
					"text" : "code qui envoie et recoit données du site web du téléphone (websocket)"
				}

			}
, 			{
				"box" : 				{
					"id" : "obj-202",
					"maxclass" : "comment",
					"numinlets" : 1,
					"numoutlets" : 0,
					"patching_rect" : [ 2169.210395812988281, 2203.999829530715942, 177.36841893196106, 20.0 ],
					"text" : "Envoyer un 255(max lumiere)"
				}

			}
, 			{
				"box" : 				{
					"bgcolor" : [ 0.427450980392157, 0.843137254901961, 1.0, 1.0 ],
					"id" : "obj-203",
					"maxclass" : "comment",
					"numinlets" : 1,
					"numoutlets" : 0,
					"patching_rect" : [ 1916.052484273910522, 2248.999829530715942, 217.368415832519531, 20.0 ],
					"text" : "vers la lumiere au dessus du téléphone"
				}

			}
, 			{
				"box" : 				{
					"id" : "obj-204",
					"maxclass" : "comment",
					"numinlets" : 1,
					"numoutlets" : 0,
					"patching_rect" : [ 1948.68406069278717, 2289.526147603988647, 184.736839413642883, 20.0 ],
					"text" : "Envoie vers qclight en localhost"
				}

			}
, 			{
				"box" : 				{
					"bgcolor" : [ 1.0, 0.345098039215686, 0.298039215686275, 1.0 ],
					"id" : "obj-205",
					"linecount" : 2,
					"maxclass" : "comment",
					"numinlets" : 1,
					"numoutlets" : 0,
					"patching_rect" : [ 2438.934077739715576, 2150.052465677261353, 214.026311874389648, 34.0 ],
					"presentation_linecount" : 2,
					"text" : "délais entre la lumiere au dessus du téléphone et son commencement"
				}

			}
, 			{
				"box" : 				{
					"id" : "obj-206",
					"maxclass" : "newobj",
					"numinlets" : 2,
					"numoutlets" : 1,
					"outlettype" : [ "bang" ],
					"patching_rect" : [ 2381.934077739715576, 2156.052465677261353, 55.0, 22.0 ],
					"text" : "del 1000"
				}

			}
, 			{
				"box" : 				{
					"id" : "obj-208",
					"maxclass" : "newobj",
					"numinlets" : 1,
					"numoutlets" : 3,
					"outlettype" : [ "bang", "bang", "bang" ],
					"patching_rect" : [ 2394.934077739715576, 2393.841939687728882, 42.0, 22.0 ],
					"text" : "t b b b"
				}

			}
, 			{
				"box" : 				{
					"id" : "obj-209",
					"maxclass" : "button",
					"numinlets" : 1,
					"numoutlets" : 1,
					"outlettype" : [ "bang" ],
					"parameter_enable" : 0,
					"patching_rect" : [ 2397.434077739715576, 2324.789309740066528, 24.0, 24.0 ]
				}

			}
, 			{
				"box" : 				{
					"id" : "obj-210",
					"maxclass" : "comment",
					"numinlets" : 1,
					"numoutlets" : 0,
					"patching_rect" : [ 2430.315657258033752, 2324.789309740066528, 321.578934073448181, 20.0 ],
					"text" : "recevoir bang à la fin du message vocal du téléphone"
				}

			}
, 			{
				"box" : 				{
					"id" : "obj-211",
					"maxclass" : "message",
					"numinlets" : 2,
					"numoutlets" : 1,
					"outlettype" : [ "" ],
					"patching_rect" : [ 2137.710395812988281, 2201.999829530715942, 29.5, 22.0 ],
					"text" : "255"
				}

			}
, 			{
				"box" : 				{
					"id" : "obj-212",
					"maxclass" : "newobj",
					"numinlets" : 1,
					"numoutlets" : 0,
					"patching_rect" : [ 2137.710395812988281, 2287.526147603988647, 135.0, 22.0 ],
					"text" : "udpsend localhost 7700"
				}

			}
, 			{
				"box" : 				{
					"id" : "obj-213",
					"maxclass" : "message",
					"numinlets" : 2,
					"numoutlets" : 1,
					"outlettype" : [ "" ],
					"patching_rect" : [ 2137.710395812988281, 2247.999829530715942, 158.0, 22.0 ],
					"presentation_linecount" : 2,
					"text" : "/telephoneAdulte/lumiere $1"
				}

			}
, 			{
				"box" : 				{
					"id" : "obj-214",
					"maxclass" : "newobj",
					"numinlets" : 1,
					"numoutlets" : 3,
					"outlettype" : [ "bang", "bang", "bang" ],
					"patching_rect" : [ 2126.131453990936279, 2117.105100274085999, 42.0, 22.0 ],
					"text" : "t b b b"
				}

			}
, 			{
				"box" : 				{
					"id" : "obj-215",
					"maxclass" : "message",
					"numinlets" : 2,
					"numoutlets" : 1,
					"outlettype" : [ "" ],
					"patching_rect" : [ 2391.934077739715576, 2194.052467226982117, 35.0, 22.0 ],
					"text" : "bang"
				}

			}
, 			{
				"box" : 				{
					"id" : "obj-216",
					"maxclass" : "comment",
					"numinlets" : 1,
					"numoutlets" : 0,
					"patching_rect" : [ 2426.855142116546631, 2195.052467226982117, 251.052623748779297, 20.0 ],
					"text" : "envoyer bang pour démarrer page web (ado)"
				}

			}
, 			{
				"box" : 				{
					"id" : "obj-217",
					"maxclass" : "message",
					"numinlets" : 2,
					"numoutlets" : 1,
					"outlettype" : [ "" ],
					"patching_rect" : [ 2016.315669655799866, 2178.105100274085999, 29.5, 22.0 ],
					"text" : "0"
				}

			}
, 			{
				"box" : 				{
					"id" : "obj-197",
					"maxclass" : "comment",
					"numinlets" : 1,
					"numoutlets" : 0,
					"patching_rect" : [ 1385.451981544494629, 892.152086138725281, 465.526296377182007, 20.0 ],
					"presentation_linecount" : 2,
					"text" : "bang pour changer de scene obs, etaindre lumiere, allumer journal et journal"
				}

			}
, 			{
				"box" : 				{
					"bgcolor" : [ 0.0, 0.854901960784314, 0.282352941176471, 1.0 ],
					"id" : "obj-178",
					"maxclass" : "comment",
					"numinlets" : 1,
					"numoutlets" : 0,
					"patching_rect" : [ 2565.78075909614563, 1886.573062181472778, 221.578941822052002, 20.0 ],
					"text" : "changer de scene pour celle vide (noir)"
				}

			}
, 			{
				"box" : 				{
					"id" : "obj-179",
					"maxclass" : "message",
					"numinlets" : 2,
					"numoutlets" : 1,
					"outlettype" : [ "" ],
					"patching_rect" : [ 2492.688745021820068, 1885.573062181472778, 69.0, 22.0 ],
					"text" : "/scene vide"
				}

			}
, 			{
				"box" : 				{
					"bgcolor" : [ 1.0, 0.345098039215686, 0.298039215686275, 1.0 ],
					"id" : "obj-180",
					"maxclass" : "comment",
					"numinlets" : 1,
					"numoutlets" : 0,
					"patching_rect" : [ 1959.780906319618225, 2022.099374055862427, 162.631577968597412, 20.0 ],
					"text" : "délais de la duré de l'audio"
				}

			}
, 			{
				"box" : 				{
					"bgcolor" : [ 0.0, 0.854901960784314, 0.282352941176471, 1.0 ],
					"id" : "obj-181",
					"maxclass" : "comment",
					"numinlets" : 1,
					"numoutlets" : 0,
					"patching_rect" : [ 2315.083499073982239, 2021.099374055862427, 223.684204816818237, 20.0 ],
					"presentation_linecount" : 2,
					"text" : "scene audio (journal) du coté adulte"
				}

			}
, 			{
				"box" : 				{
					"id" : "obj-182",
					"maxclass" : "comment",
					"numinlets" : 1,
					"numoutlets" : 0,
					"patching_rect" : [ 2161.372974634170532, 1926.836218118667603, 297.368409633636475, 20.0 ],
					"text" : "bang pour changer de scene obs et cellulaire adulte"
				}

			}
, 			{
				"box" : 				{
					"id" : "obj-183",
					"maxclass" : "newobj",
					"numinlets" : 1,
					"numoutlets" : 2,
					"outlettype" : [ "bang", "bang" ],
					"patching_rect" : [ 2127.254586696624756, 1925.836218118667603, 32.0, 22.0 ],
					"text" : "t b b"
				}

			}
, 			{
				"box" : 				{
					"bgcolor" : [ 0.427450980392157, 0.843137254901961, 1.0, 1.0 ],
					"id" : "obj-184",
					"maxclass" : "comment",
					"numinlets" : 1,
					"numoutlets" : 0,
					"patching_rect" : [ 1646.833516895771027, 1927.836218118667603, 224.539468586444855, 20.0 ],
					"text" : "vers la lumiere au dessus du journal"
				}

			}
, 			{
				"box" : 				{
					"id" : "obj-185",
					"maxclass" : "comment",
					"numinlets" : 1,
					"numoutlets" : 0,
					"patching_rect" : [ 1686.636146068572998, 1968.415167689323425, 184.736839413642883, 20.0 ],
					"text" : "Envoie vers qclight en localhost"
				}

			}
, 			{
				"box" : 				{
					"id" : "obj-186",
					"maxclass" : "comment",
					"numinlets" : 1,
					"numoutlets" : 0,
					"patching_rect" : [ 1906.241402864456177, 1880.836218118667603, 177.36841893196106, 20.0 ],
					"text" : "Envoyer un 255(max lumiere)"
				}

			}
, 			{
				"box" : 				{
					"bgcolor" : [ 1.0, 0.345098039215686, 0.298039215686275, 1.0 ],
					"id" : "obj-187",
					"maxclass" : "comment",
					"numinlets" : 1,
					"numoutlets" : 0,
					"patching_rect" : [ 2184.530867576599121, 1885.573062181472778, 263.684201717376709, 20.0 ],
					"text" : "délais pour laisser public observer le journal"
				}

			}
, 			{
				"box" : 				{
					"id" : "obj-188",
					"maxclass" : "newobj",
					"numinlets" : 2,
					"numoutlets" : 1,
					"outlettype" : [ "bang" ],
					"patching_rect" : [ 2126.767722487449646, 1884.573062181472778, 55.0, 22.0 ],
					"text" : "del 3000"
				}

			}
, 			{
				"box" : 				{
					"id" : "obj-189",
					"maxclass" : "comment",
					"numinlets" : 1,
					"numoutlets" : 0,
					"patching_rect" : [ 1617.10984194278717, 1880.836218118667603, 167.684212565422058, 20.0 ],
					"text" : "éteindre la lumiere de la boite"
				}

			}
, 			{
				"box" : 				{
					"id" : "obj-190",
					"maxclass" : "newobj",
					"numinlets" : 2,
					"numoutlets" : 1,
					"outlettype" : [ "bang" ],
					"patching_rect" : [ 2124.530872225761414, 2021.099374055862427, 61.0, 22.0 ],
					"text" : "del 20000"
				}

			}
, 			{
				"box" : 				{
					"id" : "obj-191",
					"maxclass" : "message",
					"numinlets" : 2,
					"numoutlets" : 1,
					"outlettype" : [ "" ],
					"patching_rect" : [ 2208.083499073982239, 2021.099374055862427, 105.0, 22.0 ],
					"text" : "/scene journalSon"
				}

			}
, 			{
				"box" : 				{
					"id" : "obj-192",
					"maxclass" : "message",
					"numinlets" : 2,
					"numoutlets" : 1,
					"outlettype" : [ "" ],
					"patching_rect" : [ 1792.596682906150818, 1879.415167689323425, 29.5, 22.0 ],
					"text" : "0"
				}

			}
, 			{
				"box" : 				{
					"id" : "obj-193",
					"maxclass" : "message",
					"numinlets" : 2,
					"numoutlets" : 1,
					"outlettype" : [ "" ],
					"patching_rect" : [ 1873.372985482215881, 1880.836218118667603, 29.5, 22.0 ],
					"text" : "255"
				}

			}
, 			{
				"box" : 				{
					"id" : "obj-194",
					"maxclass" : "newobj",
					"numinlets" : 1,
					"numoutlets" : 0,
					"patching_rect" : [ 1873.372985482215881, 1967.415167689323425, 135.0, 22.0 ],
					"text" : "udpsend localhost 7700"
				}

			}
, 			{
				"box" : 				{
					"id" : "obj-195",
					"maxclass" : "message",
					"numinlets" : 2,
					"numoutlets" : 1,
					"outlettype" : [ "" ],
					"patching_rect" : [ 1873.372985482215881, 1926.836218118667603, 141.0, 22.0 ],
					"presentation_linecount" : 2,
					"text" : "/journalAdulte/lumiere $1"
				}

			}
, 			{
				"box" : 				{
					"id" : "obj-196",
					"maxclass" : "newobj",
					"numinlets" : 1,
					"numoutlets" : 4,
					"outlettype" : [ "bang", "bang", "bang", "bang" ],
					"patching_rect" : [ 1878.6230149269104, 1811.4678053855896, 52.0, 22.0 ],
					"text" : "t b b b b"
				}

			}
, 			{
				"box" : 				{
					"bgcolor" : [ 0.0, 0.854901960784314, 0.282352941176471, 1.0 ],
					"id" : "obj-176",
					"maxclass" : "comment",
					"numinlets" : 1,
					"numoutlets" : 0,
					"patching_rect" : [ 2015.912378907203674, 965.257342934608459, 221.578941822052002, 20.0 ],
					"text" : "changer de scene pour celle vide (noir)"
				}

			}
, 			{
				"box" : 				{
					"id" : "obj-177",
					"maxclass" : "message",
					"numinlets" : 2,
					"numoutlets" : 1,
					"outlettype" : [ "" ],
					"patching_rect" : [ 1942.820364832878113, 964.257342934608459, 69.0, 22.0 ],
					"text" : "/scene vide"
				}

			}
, 			{
				"box" : 				{
					"bgcolor" : [ 1.0, 0.345098039215686, 0.298039215686275, 1.0 ],
					"id" : "obj-172",
					"maxclass" : "comment",
					"numinlets" : 1,
					"numoutlets" : 0,
					"patching_rect" : [ 1715.741438508033752, 1729.730965971946716, 162.631577968597412, 20.0 ],
					"text" : "délais de la duré de la vidéo"
				}

			}
, 			{
				"box" : 				{
					"bgcolor" : [ 0.0, 0.854901960784314, 0.282352941176471, 1.0 ],
					"id" : "obj-173",
					"maxclass" : "comment",
					"numinlets" : 1,
					"numoutlets" : 0,
					"patching_rect" : [ 2121.122973084449768, 1725.573071479797363, 217.368415832519531, 20.0 ],
					"text" : "scene vidéo (boite) du coté adulte"
				}

			}
, 			{
				"box" : 				{
					"id" : "obj-174",
					"maxclass" : "newobj",
					"numinlets" : 2,
					"numoutlets" : 1,
					"outlettype" : [ "bang" ],
					"patching_rect" : [ 1880.596698403358459, 1728.730965971946716, 61.0, 22.0 ],
					"text" : "del 30000"
				}

			}
, 			{
				"box" : 				{
					"id" : "obj-175",
					"maxclass" : "message",
					"numinlets" : 2,
					"numoutlets" : 1,
					"outlettype" : [ "" ],
					"patching_rect" : [ 1993.280912518501282, 1724.573071479797363, 121.0, 22.0 ],
					"presentation_linecount" : 2,
					"text" : "/scene boiteSouvenir"
				}

			}
, 			{
				"box" : 				{
					"id" : "obj-171",
					"maxclass" : "newobj",
					"numinlets" : 1,
					"numoutlets" : 2,
					"outlettype" : [ "bang", "bang" ],
					"patching_rect" : [ 1942.820364832878113, 1664.734723057746805, 32.0, 22.0 ],
					"text" : "t b b"
				}

			}
, 			{
				"box" : 				{
					"id" : "obj-170",
					"maxclass" : "comment",
					"numinlets" : 1,
					"numoutlets" : 0,
					"patching_rect" : [ 1980.899312853813171, 1597.941487312316895, 275.263148188591003, 20.0 ],
					"text" : "recevoir bang boite à souvenir"
				}

			}
, 			{
				"box" : 				{
					"bgcolor" : [ 0.427450980392157, 0.843137254901961, 1.0, 1.0 ],
					"id" : "obj-164",
					"maxclass" : "comment",
					"numinlets" : 1,
					"numoutlets" : 0,
					"patching_rect" : [ 1418.386182487010956, 1472.415229678153992, 285.59209543466568, 20.0 ],
					"presentation_linecount" : 2,
					"text" : "vers la lumiere au dessus de la boite à souvenir"
				}

			}
, 			{
				"box" : 				{
					"id" : "obj-165",
					"maxclass" : "comment",
					"numinlets" : 1,
					"numoutlets" : 0,
					"patching_rect" : [ 1515.267758131027222, 1509.204692840576172, 184.736839413642883, 20.0 ],
					"text" : "Envoie vers qclight en localhost"
				}

			}
, 			{
				"box" : 				{
					"id" : "obj-166",
					"maxclass" : "comment",
					"numinlets" : 1,
					"numoutlets" : 0,
					"patching_rect" : [ 1737.478277921676636, 1425.415229678153992, 166.0, 20.0 ],
					"text" : "Envoyer un 255(max lumiere)"
				}

			}
, 			{
				"box" : 				{
					"id" : "obj-167",
					"maxclass" : "message",
					"numinlets" : 2,
					"numoutlets" : 1,
					"outlettype" : [ "" ],
					"patching_rect" : [ 1705.978277921676636, 1425.415229678153992, 29.5, 22.0 ],
					"text" : "255"
				}

			}
, 			{
				"box" : 				{
					"id" : "obj-168",
					"maxclass" : "newobj",
					"numinlets" : 1,
					"numoutlets" : 0,
					"patching_rect" : [ 1705.978277921676636, 1505.415229678153992, 135.0, 22.0 ],
					"text" : "udpsend localhost 7700"
				}

			}
, 			{
				"box" : 				{
					"id" : "obj-169",
					"maxclass" : "message",
					"numinlets" : 2,
					"numoutlets" : 1,
					"outlettype" : [ "" ],
					"patching_rect" : [ 1705.978277921676636, 1471.415229678153992, 145.0, 22.0 ],
					"presentation_linecount" : 2,
					"text" : "/boiteSouvenir/lumiere $1"
				}

			}
, 			{
				"box" : 				{
					"id" : "obj-163",
					"maxclass" : "comment",
					"numinlets" : 1,
					"numoutlets" : 0,
					"patching_rect" : [ 1458.846701502799988, 1420.420942723751068, 186.631579518318176, 20.0 ],
					"presentation_linecount" : 2,
					"text" : "éteindre la lumiere du coté adulte"
				}

			}
, 			{
				"box" : 				{
					"id" : "obj-162",
					"maxclass" : "message",
					"numinlets" : 2,
					"numoutlets" : 1,
					"outlettype" : [ "" ],
					"patching_rect" : [ 1647.478281021118164, 1418.420942723751068, 29.5, 22.0 ],
					"text" : "0"
				}

			}
, 			{
				"box" : 				{
					"id" : "obj-160",
					"maxclass" : "newobj",
					"numinlets" : 1,
					"numoutlets" : 3,
					"outlettype" : [ "bang", "bang", "bang" ],
					"patching_rect" : [ 1687.478277921676636, 1344.737382450103723, 42.0, 22.0 ],
					"text" : "t b b b"
				}

			}
, 			{
				"box" : 				{
					"id" : "obj-159",
					"maxclass" : "button",
					"numinlets" : 1,
					"numoutlets" : 1,
					"outlettype" : [ "bang" ],
					"parameter_enable" : 0,
					"patching_rect" : [ 1942.820364832878113, 1593.941487312316895, 24.0, 24.0 ]
				}

			}
, 			{
				"box" : 				{
					"id" : "obj-158",
					"maxclass" : "comment",
					"numinlets" : 1,
					"numoutlets" : 0,
					"patching_rect" : [ 1972.215101838111877, 1425.52049732208252, 275.263148188591003, 20.0 ],
					"presentation_linecount" : 2,
					"text" : "envoyer bang pour démarrer la boite a souvenir"
				}

			}
, 			{
				"box" : 				{
					"id" : "obj-157",
					"maxclass" : "message",
					"numinlets" : 2,
					"numoutlets" : 1,
					"outlettype" : [ "" ],
					"patching_rect" : [ 1928.60984194278717, 1425.415229678153992, 35.0, 22.0 ],
					"text" : "bang"
				}

			}
, 			{
				"box" : 				{
					"bgcolor" : [ 0.0, 0.854901960784314, 0.282352941176471, 1.0 ],
					"id" : "obj-155",
					"maxclass" : "comment",
					"numinlets" : 1,
					"numoutlets" : 0,
					"patching_rect" : [ 1967.701856017112732, 1293.099449992179871, 221.578941822052002, 20.0 ],
					"text" : "changer de scene pour celle vide (noir)"
				}

			}
, 			{
				"box" : 				{
					"bgcolor" : [ 1.0, 0.345098039215686, 0.298039215686275, 1.0 ],
					"id" : "obj-154",
					"linecount" : 2,
					"maxclass" : "comment",
					"numinlets" : 1,
					"numoutlets" : 0,
					"patching_rect" : [ 1750.478277921676636, 1285.78365170955658, 127.894738554954529, 34.0 ],
					"presentation_linecount" : 2,
					"text" : "délais pour observer chambre adulte"
				}

			}
, 			{
				"box" : 				{
					"id" : "obj-153",
					"maxclass" : "comment",
					"numinlets" : 1,
					"numoutlets" : 0,
					"patching_rect" : [ 1628.662492036819458, 1217.625755667686462, 480.52629017829895, 20.0 ],
					"presentation_linecount" : 2,
					"text" : "bang pour eteindre lumiere, allumer cote adulte, boite a souvenir et changement scene"
				}

			}
, 			{
				"box" : 				{
					"bgcolor" : [ 0.427450980392157, 0.843137254901961, 1.0, 1.0 ],
					"id" : "obj-151",
					"maxclass" : "comment",
					"numinlets" : 1,
					"numoutlets" : 0,
					"patching_rect" : [ 1245.649343073368073, 1340.678384065628052, 224.539468586444855, 20.0 ],
					"text" : "vers la lumiere au dessus du cote adulte"
				}

			}
, 			{
				"box" : 				{
					"id" : "obj-152",
					"maxclass" : "comment",
					"numinlets" : 1,
					"numoutlets" : 0,
					"patching_rect" : [ 1284.451972246170044, 1375.257333636283875, 184.736839413642883, 20.0 ],
					"text" : "Envoie vers qclight en localhost"
				}

			}
, 			{
				"box" : 				{
					"id" : "obj-149",
					"maxclass" : "comment",
					"numinlets" : 1,
					"numoutlets" : 0,
					"patching_rect" : [ 1506.662492036819458, 1291.467870473861694, 165.789472460746765, 20.0 ],
					"text" : "Envoyer un 255(max lumiere)"
				}

			}
, 			{
				"box" : 				{
					"id" : "obj-148",
					"maxclass" : "comment",
					"numinlets" : 1,
					"numoutlets" : 0,
					"patching_rect" : [ 1250.333584308624268, 1287.78365170955658, 163.473686575889587, 20.0 ],
					"text" : "éteindre la lumiere du journal"
				}

			}
, 			{
				"box" : 				{
					"bgcolor" : [ 1.0, 0.345098039215686, 0.298039215686275, 1.0 ],
					"id" : "obj-147",
					"maxclass" : "comment",
					"numinlets" : 1,
					"numoutlets" : 0,
					"patching_rect" : [ 1409.91252613067627, 1100.783654808998108, 162.631577968597412, 20.0 ],
					"text" : "délais de la duré de l'audio"
				}

			}
, 			{
				"box" : 				{
					"bgcolor" : [ 0.0, 0.854901960784314, 0.282352941176471, 1.0 ],
					"id" : "obj-146",
					"maxclass" : "comment",
					"numinlets" : 1,
					"numoutlets" : 0,
					"patching_rect" : [ 1784.162485837936401, 1099.783654808998108, 194.210522890090942, 20.0 ],
					"presentation_linecount" : 2,
					"text" : "scene audio (journal) du coté ado"
				}

			}
, 			{
				"box" : 				{
					"id" : "obj-144",
					"maxclass" : "comment",
					"numinlets" : 1,
					"numoutlets" : 0,
					"patching_rect" : [ 1611.504594445228577, 1005.520498871803284, 297.368409633636475, 20.0 ],
					"text" : "bang pour changer de scene obs et vers cote adulte"
				}

			}
, 			{
				"box" : 				{
					"id" : "obj-145",
					"maxclass" : "newobj",
					"numinlets" : 1,
					"numoutlets" : 2,
					"outlettype" : [ "bang", "bang" ],
					"patching_rect" : [ 1577.3862065076828, 1004.520498871803284, 32.0, 22.0 ],
					"text" : "t b b"
				}

			}
, 			{
				"box" : 				{
					"bgcolor" : [ 0.427450980392157, 0.843137254901961, 1.0, 1.0 ],
					"id" : "obj-139",
					"maxclass" : "comment",
					"numinlets" : 1,
					"numoutlets" : 0,
					"patching_rect" : [ 1096.965136706829071, 1006.520498871803284, 224.539468586444855, 20.0 ],
					"text" : "vers la lumiere au dessus du journal"
				}

			}
, 			{
				"box" : 				{
					"id" : "obj-138",
					"maxclass" : "comment",
					"numinlets" : 1,
					"numoutlets" : 0,
					"patching_rect" : [ 1136.767765879631042, 1047.099448442459106, 184.736839413642883, 20.0 ],
					"text" : "Envoie vers qclight en localhost"
				}

			}
, 			{
				"box" : 				{
					"id" : "obj-137",
					"maxclass" : "comment",
					"numinlets" : 1,
					"numoutlets" : 0,
					"patching_rect" : [ 1356.373022675514221, 959.520498871803284, 177.36841893196106, 20.0 ],
					"text" : "Envoyer un 255(max lumiere)"
				}

			}
, 			{
				"box" : 				{
					"bgcolor" : [ 1.0, 0.345098039215686, 0.298039215686275, 1.0 ],
					"id" : "obj-136",
					"maxclass" : "comment",
					"numinlets" : 1,
					"numoutlets" : 0,
					"patching_rect" : [ 1634.662487387657166, 964.257342934608459, 263.684201717376709, 20.0 ],
					"text" : "délais pour laisser public observer le journal"
				}

			}
, 			{
				"box" : 				{
					"id" : "obj-135",
					"maxclass" : "newobj",
					"numinlets" : 2,
					"numoutlets" : 1,
					"outlettype" : [ "bang" ],
					"patching_rect" : [ 1576.89934229850769, 963.257342934608459, 55.0, 22.0 ],
					"text" : "del 3000"
				}

			}
, 			{
				"box" : 				{
					"id" : "obj-134",
					"maxclass" : "comment",
					"numinlets" : 1,
					"numoutlets" : 0,
					"patching_rect" : [ 1048.294094800949097, 960.099448442459106, 194.0, 20.0 ],
					"text" : "éteindre la lumiere de la poubelle"
				}

			}
, 			{
				"box" : 				{
					"bgcolor" : [ 1.0, 0.345098039215686, 0.298039215686275, 1.0 ],
					"id" : "obj-132",
					"maxclass" : "comment",
					"numinlets" : 1,
					"numoutlets" : 0,
					"patching_rect" : [ 1166.136204957962036, 836.836297154426575, 162.631577968597412, 20.0 ],
					"text" : "délais de la duré de la vidéo"
				}

			}
, 			{
				"box" : 				{
					"bgcolor" : [ 0.0, 0.854901960784314, 0.282352941176471, 1.0 ],
					"id" : "obj-130",
					"maxclass" : "comment",
					"numinlets" : 1,
					"numoutlets" : 0,
					"patching_rect" : [ 1555.280909419059753, 832.678402662277222, 202.631574869155884, 20.0 ],
					"text" : "scene vidéo (poubelle) du coté ado"
				}

			}
, 			{
				"box" : 				{
					"id" : "obj-128",
					"maxclass" : "comment",
					"numinlets" : 1,
					"numoutlets" : 0,
					"patching_rect" : [ 1342.451972246170044, 770.941561698913574, 309.999987602233887, 20.0 ],
					"text" : "bang pour changer de scene obs et vers le journal"
				}

			}
, 			{
				"box" : 				{
					"bgcolor" : [ 1.0, 0.345098039215686, 0.298039215686275, 1.0 ],
					"id" : "obj-126",
					"maxclass" : "comment",
					"numinlets" : 1,
					"numoutlets" : 0,
					"patching_rect" : [ 1376.636200308799744, 706.309982180595398, 263.684201717376709, 20.0 ],
					"text" : "délais pour laisser public observer la poubelle"
				}

			}
, 			{
				"box" : 				{
					"id" : "obj-124",
					"maxclass" : "comment",
					"numinlets" : 1,
					"numoutlets" : 0,
					"patching_rect" : [ 872.333573460578918, 797.994190096855164, 184.736839413642883, 20.0 ],
					"text" : "Envoie vers qclight en localhost"
				}

			}
, 			{
				"box" : 				{
					"bgcolor" : [ 0.427450980392157, 0.843137254901961, 1.0, 1.0 ],
					"id" : "obj-123",
					"maxclass" : "comment",
					"numinlets" : 1,
					"numoutlets" : 0,
					"patching_rect" : [ 832.530944287776947, 760.573135018348694, 224.539468586444855, 20.0 ],
					"presentation_linecount" : 2,
					"text" : "vers la lumiere au dessus de la poubelle"
				}

			}
, 			{
				"box" : 				{
					"id" : "obj-122",
					"maxclass" : "comment",
					"numinlets" : 1,
					"numoutlets" : 0,
					"patching_rect" : [ 1089.794094800949097, 707.309982180595398, 177.36841893196106, 20.0 ],
					"text" : "Envoyer un 255(max lumiere)"
				}

			}
, 			{
				"box" : 				{
					"id" : "obj-121",
					"maxclass" : "comment",
					"numinlets" : 1,
					"numoutlets" : 0,
					"patching_rect" : [ 1089.794094800949097, 626.204720735549927, 389.99998140335083, 20.0 ],
					"text" : "bang fermeture lumiere téléphone, lumiere poubelle et video poubelle"
				}

			}
, 			{
				"box" : 				{
					"bgcolor" : [ 1.0, 0.345098039215686, 0.298039215686275, 1.0 ],
					"id" : "obj-119",
					"maxclass" : "comment",
					"numinlets" : 1,
					"numoutlets" : 0,
					"patching_rect" : [ 1059.070412874221802, 594.309983730316162, 177.36841893196106, 20.0 ],
					"text" : "Possibilité d'ajouter petit délais "
				}

			}
, 			{
				"box" : 				{
					"id" : "obj-118",
					"maxclass" : "comment",
					"numinlets" : 1,
					"numoutlets" : 0,
					"patching_rect" : [ 736.780945062637329, 706.309982180595398, 229.078941822052002, 20.0 ],
					"text" : "fermeture de la lumiere du téléphone"
				}

			}
, 			{
				"box" : 				{
					"id" : "obj-116",
					"maxclass" : "comment",
					"numinlets" : 1,
					"numoutlets" : 0,
					"patching_rect" : [ 820.070412874221802, 348.467881321907043, 354.394738554954529, 20.0 ],
					"text" : "bang vers fermeture jeu lumiere, lumiere téléphone et téléphone"
				}

			}
, 			{
				"box" : 				{
					"bgcolor" : [ 1.0, 0.392156862745098, 0.0, 1.0 ],
					"id" : "obj-114",
					"linecount" : 3,
					"maxclass" : "comment",
					"numinlets" : 1,
					"numoutlets" : 0,
					"patching_rect" : [ 1042.794094800949097, 488.94733053445816, 150.0, 48.0 ],
					"text" : "code qui envoie et recoit données du site web du téléphone (websocket)"
				}

			}
, 			{
				"box" : 				{
					"bgcolor" : [ 1.0, 0.392156862745098, 0.0, 1.0 ],
					"id" : "obj-112",
					"maxclass" : "comment",
					"numinlets" : 1,
					"numoutlets" : 0,
					"patching_rect" : [ 8.570485711097717, 115.888941049575806, 253.157886743545532, 20.0 ],
					"text" : "Code manquant"
				}

			}
, 			{
				"box" : 				{
					"id" : "obj-111",
					"maxclass" : "comment",
					"numinlets" : 1,
					"numoutlets" : 0,
					"patching_rect" : [ 448.754653334617615, 281.467881321907043, 177.36841893196106, 20.0 ],
					"text" : "Envoyer un 255(max lumiere)"
				}

			}
, 			{
				"box" : 				{
					"id" : "obj-110",
					"maxclass" : "comment",
					"numinlets" : 1,
					"numoutlets" : 0,
					"patching_rect" : [ 820.070412874221802, 435.362610578536987, 177.36841893196106, 20.0 ],
					"text" : "Envoyer un 255(max lumiere)"
				}

			}
, 			{
				"box" : 				{
					"bgcolor" : [ 0.427450980392157, 0.843137254901961, 1.0, 1.0 ],
					"id" : "obj-109",
					"maxclass" : "comment",
					"numinlets" : 1,
					"numoutlets" : 0,
					"patching_rect" : [ 566.912501335144043, 480.362610578536987, 217.368415832519531, 20.0 ],
					"text" : "vers la lumiere au dessus du téléphone"
				}

			}
, 			{
				"box" : 				{
					"id" : "obj-108",
					"maxclass" : "comment",
					"numinlets" : 1,
					"numoutlets" : 0,
					"patching_rect" : [ 599.544077754020691, 520.888928651809692, 184.736839413642883, 20.0 ],
					"text" : "Envoie vers qclight en localhost"
				}

			}
, 			{
				"box" : 				{
					"bgcolor" : [ 1.0, 0.345098039215686, 0.298039215686275, 1.0 ],
					"id" : "obj-107",
					"linecount" : 2,
					"maxclass" : "comment",
					"numinlets" : 1,
					"numoutlets" : 0,
					"patching_rect" : [ 1089.794094800949097, 381.415246725082397, 214.026311874389648, 34.0 ],
					"text" : "délais entre la lumiere au dessus du téléphone et son commencement"
				}

			}
, 			{
				"box" : 				{
					"id" : "obj-105",
					"maxclass" : "newobj",
					"numinlets" : 2,
					"numoutlets" : 1,
					"outlettype" : [ "bang" ],
					"patching_rect" : [ 1032.794094800949097, 387.415246725082397, 55.0, 22.0 ],
					"text" : "del 1000"
				}

			}
, 			{
				"box" : 				{
					"id" : "obj-100",
					"linecount" : 3,
					"maxclass" : "comment",
					"numinlets" : 1,
					"numoutlets" : 0,
					"patching_rect" : [ 698.675686717033386, 399.415248274803162, 73.15790069103241, 48.0 ],
					"presentation_linecount" : 2,
					"text" : "éteindre le chaser jeu de lumiere"
				}

			}
, 			{
				"box" : 				{
					"bgcolor" : [ 0.427450980392157, 0.843137254901961, 1.0, 1.0 ],
					"id" : "obj-99",
					"maxclass" : "comment",
					"numinlets" : 1,
					"numoutlets" : 0,
					"patching_rect" : [ 8.570485711097717, 79.836311101913452, 253.157886743545532, 20.0 ],
					"text" : "changer les noms de lumiere qclight"
				}

			}
, 			{
				"box" : 				{
					"bgcolor" : [ 0.0, 0.854901960784314, 0.282352941176471, 1.0 ],
					"id" : "obj-98",
					"maxclass" : "comment",
					"numinlets" : 1,
					"numoutlets" : 0,
					"patching_rect" : [ 8.570485711097717, 41.231040358543396, 253.157886743545532, 20.0 ],
					"text" : "changer les noms de scènes obs"
				}

			}
, 			{
				"box" : 				{
					"bgcolor" : [ 1.0, 0.345098039215686, 0.298039215686275, 1.0 ],
					"id" : "obj-94",
					"maxclass" : "comment",
					"numinlets" : 1,
					"numoutlets" : 0,
					"patching_rect" : [ 8.570485711097717, 7.54683244228363, 253.157886743545532, 20.0 ],
					"text" : "changer les délais"
				}

			}
, 			{
				"box" : 				{
					"bgcolor" : [ 1.0, 0.345098039215686, 0.298039215686275, 1.0 ],
					"id" : "obj-92",
					"maxclass" : "comment",
					"numinlets" : 1,
					"numoutlets" : 0,
					"patching_rect" : [ 813.05726158618927, 292.467881321907043, 264.736833214759827, 20.0 ],
					"presentation_linecount" : 2,
					"text" : "Délais pour le temps de notre jeu de lumiere"
				}

			}
, 			{
				"box" : 				{
					"id" : "obj-91",
					"maxclass" : "comment",
					"numinlets" : 1,
					"numoutlets" : 0,
					"patching_rect" : [ 228.754631638526917, 408.467881321907043, 184.736839413642883, 20.0 ],
					"text" : "Envoie vers qclight en localhost"
				}

			}
, 			{
				"box" : 				{
					"bgcolor" : [ 0.427450980392157, 0.843137254901961, 1.0, 1.0 ],
					"id" : "obj-90",
					"maxclass" : "comment",
					"numinlets" : 1,
					"numoutlets" : 0,
					"patching_rect" : [ 166.070505857467651, 336.467881321907043, 243.684203267097473, 20.0 ],
					"presentation_linecount" : 2,
					"text" : "vers le chaser du jeu de lumiere du début"
				}

			}
, 			{
				"box" : 				{
					"bgcolor" : [ 0.0, 0.854901960784314, 0.282352941176471, 1.0 ],
					"id" : "obj-88",
					"maxclass" : "comment",
					"numinlets" : 1,
					"numoutlets" : 0,
					"patching_rect" : [ 68.438844203948975, 274.467881321907043, 221.578941822052002, 20.0 ],
					"text" : "changer de scene pour celle vide (noir)"
				}

			}
, 			{
				"box" : 				{
					"bgcolor" : [ 1.0, 0.392156862745098, 0.0, 1.0 ],
					"id" : "obj-9",
					"linecount" : 2,
					"maxclass" : "comment",
					"numinlets" : 1,
					"numoutlets" : 0,
					"patching_rect" : [ 1935.215101838111877, 1505.415229678153992, 113.5, 34.0 ],
					"presentation_linecount" : 2,
					"text" : "Coller code boite a souvenir"
				}

			}
, 			{
				"box" : 				{
					"id" : "obj-12",
					"maxclass" : "newobj",
					"numinlets" : 2,
					"numoutlets" : 1,
					"outlettype" : [ "bang" ],
					"patching_rect" : [ 1687.478277921676636, 1292.099449992179871, 61.0, 22.0 ],
					"text" : "del 10000"
				}

			}
, 			{
				"box" : 				{
					"id" : "obj-14",
					"maxclass" : "message",
					"numinlets" : 2,
					"numoutlets" : 1,
					"outlettype" : [ "" ],
					"patching_rect" : [ 1475.162492036819458, 1291.467870473861694, 29.5, 22.0 ],
					"text" : "255"
				}

			}
, 			{
				"box" : 				{
					"id" : "obj-18",
					"maxclass" : "newobj",
					"numinlets" : 1,
					"numoutlets" : 0,
					"patching_rect" : [ 1475.162492036819458, 1371.467870473861694, 135.0, 22.0 ],
					"text" : "udpsend localhost 7700"
				}

			}
, 			{
				"box" : 				{
					"id" : "obj-20",
					"maxclass" : "message",
					"numinlets" : 2,
					"numoutlets" : 1,
					"outlettype" : [ "" ],
					"patching_rect" : [ 1475.162492036819458, 1337.467870473861694, 128.0, 22.0 ],
					"text" : "/coteAdulte/lumiere $1"
				}

			}
, 			{
				"box" : 				{
					"id" : "obj-21",
					"maxclass" : "message",
					"numinlets" : 2,
					"numoutlets" : 1,
					"outlettype" : [ "" ],
					"patching_rect" : [ 1894.60984194278717, 1292.099449992179871, 69.0, 22.0 ],
					"text" : "/scene vide"
				}

			}
, 			{
				"box" : 				{
					"id" : "obj-22",
					"maxclass" : "newobj",
					"numinlets" : 1,
					"numoutlets" : 4,
					"outlettype" : [ "bang", "bang", "bang", "bang" ],
					"patching_rect" : [ 1574.662492036819458, 1217.625755667686462, 52.0, 22.0 ],
					"text" : "t b b b b"
				}

			}
, 			{
				"box" : 				{
					"id" : "obj-23",
					"maxclass" : "message",
					"numinlets" : 2,
					"numoutlets" : 1,
					"outlettype" : [ "" ],
					"patching_rect" : [ 1418.478315114974976, 1285.78365170955658, 29.5, 22.0 ],
					"text" : "0"
				}

			}
, 			{
				"box" : 				{
					"id" : "obj-25",
					"maxclass" : "newobj",
					"numinlets" : 2,
					"numoutlets" : 1,
					"outlettype" : [ "bang" ],
					"patching_rect" : [ 1574.662492036819458, 1099.783654808998108, 61.0, 22.0 ],
					"text" : "del 20000"
				}

			}
, 			{
				"box" : 				{
					"id" : "obj-31",
					"maxclass" : "message",
					"numinlets" : 2,
					"numoutlets" : 1,
					"outlettype" : [ "" ],
					"patching_rect" : [ 1677.162485837936401, 1099.783654808998108, 105.0, 22.0 ],
					"text" : "/scene journalSon"
				}

			}
, 			{
				"box" : 				{
					"id" : "obj-33",
					"maxclass" : "newobj",
					"numinlets" : 1,
					"numoutlets" : 2,
					"outlettype" : [ "bang", "bang" ],
					"patching_rect" : [ 1308.333584308624268, 769.941561698913574, 32.0, 22.0 ],
					"text" : "t b b"
				}

			}
, 			{
				"box" : 				{
					"id" : "obj-38",
					"maxclass" : "newobj",
					"numinlets" : 2,
					"numoutlets" : 1,
					"outlettype" : [ "bang" ],
					"patching_rect" : [ 1328.754634737968445, 835.836297154426575, 61.0, 22.0 ],
					"text" : "del 30000"
				}

			}
, 			{
				"box" : 				{
					"id" : "obj-47",
					"maxclass" : "message",
					"numinlets" : 2,
					"numoutlets" : 1,
					"outlettype" : [ "" ],
					"patching_rect" : [ 1242.728302717208862, 958.099448442459106, 29.5, 22.0 ],
					"text" : "0"
				}

			}
, 			{
				"box" : 				{
					"id" : "obj-48",
					"maxclass" : "message",
					"numinlets" : 2,
					"numoutlets" : 1,
					"outlettype" : [ "" ],
					"patching_rect" : [ 1323.504605293273926, 959.520498871803284, 29.5, 22.0 ],
					"text" : "255"
				}

			}
, 			{
				"box" : 				{
					"id" : "obj-49",
					"maxclass" : "newobj",
					"numinlets" : 1,
					"numoutlets" : 0,
					"patching_rect" : [ 1323.504605293273926, 1046.099448442459106, 135.0, 22.0 ],
					"text" : "udpsend localhost 7700"
				}

			}
, 			{
				"box" : 				{
					"id" : "obj-57",
					"maxclass" : "message",
					"numinlets" : 2,
					"numoutlets" : 1,
					"outlettype" : [ "" ],
					"patching_rect" : [ 1323.504605293273926, 1005.520498871803284, 129.0, 22.0 ],
					"text" : "/journalAdo/lumiere $1"
				}

			}
, 			{
				"box" : 				{
					"id" : "obj-64",
					"maxclass" : "newobj",
					"numinlets" : 1,
					"numoutlets" : 4,
					"outlettype" : [ "bang", "bang", "bang", "bang" ],
					"patching_rect" : [ 1328.754634737968445, 890.152086138725281, 52.0, 22.0 ],
					"text" : "t b b b b"
				}

			}
, 			{
				"box" : 				{
					"id" : "obj-66",
					"maxclass" : "message",
					"numinlets" : 2,
					"numoutlets" : 1,
					"outlettype" : [ "" ],
					"patching_rect" : [ 1058.294094800949097, 705.309982180595398, 29.5, 22.0 ],
					"text" : "255"
				}

			}
, 			{
				"box" : 				{
					"id" : "obj-67",
					"maxclass" : "newobj",
					"numinlets" : 1,
					"numoutlets" : 0,
					"patching_rect" : [ 1059.070412874221802, 796.994190096855164, 135.0, 22.0 ],
					"text" : "udpsend localhost 7700"
				}

			}
, 			{
				"box" : 				{
					"id" : "obj-68",
					"maxclass" : "message",
					"numinlets" : 2,
					"numoutlets" : 1,
					"outlettype" : [ "" ],
					"patching_rect" : [ 1059.070412874221802, 759.573135018348694, 138.0, 22.0 ],
					"text" : "/poubelleAdo/lumiere $1"
				}

			}
, 			{
				"box" : 				{
					"id" : "obj-69",
					"maxclass" : "message",
					"numinlets" : 2,
					"numoutlets" : 1,
					"outlettype" : [ "" ],
					"patching_rect" : [ 975.452041983604431, 705.309982180595398, 29.5, 22.0 ],
					"text" : "0"
				}

			}
, 			{
				"box" : 				{
					"id" : "obj-70",
					"maxclass" : "message",
					"numinlets" : 2,
					"numoutlets" : 1,
					"outlettype" : [ "" ],
					"patching_rect" : [ 1441.438848853111267, 831.678402662277222, 108.0, 22.0 ],
					"text" : "/scene intimidation"
				}

			}
, 			{
				"box" : 				{
					"id" : "obj-71",
					"maxclass" : "newobj",
					"numinlets" : 2,
					"numoutlets" : 1,
					"outlettype" : [ "bang" ],
					"patching_rect" : [ 1308.636200308799744, 706.309982180595398, 55.0, 22.0 ],
					"text" : "del 3000"
				}

			}
, 			{
				"box" : 				{
					"id" : "obj-72",
					"maxclass" : "newobj",
					"numinlets" : 1,
					"numoutlets" : 3,
					"outlettype" : [ "bang", "bang", "bang" ],
					"patching_rect" : [ 1045.794094800949097, 625.204720735549927, 42.0, 22.0 ],
					"text" : "t b b b"
				}

			}
, 			{
				"box" : 				{
					"id" : "obj-73",
					"maxclass" : "button",
					"numinlets" : 1,
					"numoutlets" : 1,
					"outlettype" : [ "bang" ],
					"parameter_enable" : 0,
					"patching_rect" : [ 1048.294094800949097, 556.152090787887573, 24.0, 24.0 ]
				}

			}
, 			{
				"box" : 				{
					"id" : "obj-74",
					"maxclass" : "comment",
					"numinlets" : 1,
					"numoutlets" : 0,
					"patching_rect" : [ 1081.175674319267273, 556.152090787887573, 321.578934073448181, 20.0 ],
					"presentation_linecount" : 3,
					"text" : "recevoir bang à la fin du message vocal du téléphone"
				}

			}
, 			{
				"box" : 				{
					"id" : "obj-75",
					"maxclass" : "message",
					"numinlets" : 2,
					"numoutlets" : 1,
					"outlettype" : [ "" ],
					"patching_rect" : [ 788.570412874221802, 433.362610578536987, 29.5, 22.0 ],
					"text" : "255"
				}

			}
, 			{
				"box" : 				{
					"id" : "obj-76",
					"maxclass" : "newobj",
					"numinlets" : 1,
					"numoutlets" : 0,
					"patching_rect" : [ 788.570412874221802, 518.888928651809692, 135.0, 22.0 ],
					"text" : "udpsend localhost 7700"
				}

			}
, 			{
				"box" : 				{
					"id" : "obj-77",
					"maxclass" : "message",
					"numinlets" : 2,
					"numoutlets" : 1,
					"outlettype" : [ "" ],
					"patching_rect" : [ 788.570412874221802, 479.362610578536987, 145.0, 22.0 ],
					"text" : "/telephoneAdo/lumiere $1"
				}

			}
, 			{
				"box" : 				{
					"id" : "obj-78",
					"maxclass" : "newobj",
					"numinlets" : 1,
					"numoutlets" : 3,
					"outlettype" : [ "bang", "bang", "bang" ],
					"patching_rect" : [ 776.9914710521698, 348.467881321907043, 42.0, 22.0 ],
					"text" : "t b b b"
				}

			}
, 			{
				"box" : 				{
					"id" : "obj-79",
					"maxclass" : "message",
					"numinlets" : 2,
					"numoutlets" : 1,
					"outlettype" : [ "" ],
					"patching_rect" : [ 1042.794094800949097, 425.415248274803162, 35.0, 22.0 ],
					"text" : "bang"
				}

			}
, 			{
				"box" : 				{
					"id" : "obj-80",
					"maxclass" : "comment",
					"numinlets" : 1,
					"numoutlets" : 0,
					"patching_rect" : [ 1077.715159177780151, 426.415248274803162, 251.052623748779297, 20.0 ],
					"presentation_linecount" : 2,
					"text" : "envoyer bang pour démarrer page web (ado)"
				}

			}
, 			{
				"box" : 				{
					"id" : "obj-81",
					"maxclass" : "message",
					"numinlets" : 2,
					"numoutlets" : 1,
					"outlettype" : [ "" ],
					"patching_rect" : [ 667.175686717033386, 409.467881321907043, 29.5, 22.0 ],
					"text" : "0"
				}

			}
, 			{
				"box" : 				{
					"id" : "obj-82",
					"maxclass" : "newobj",
					"numinlets" : 2,
					"numoutlets" : 1,
					"outlettype" : [ "bang" ],
					"patching_rect" : [ 740.9914710521698, 292.467881321907043, 68.0, 22.0 ],
					"text" : "del 100000"
				}

			}
, 			{
				"box" : 				{
					"id" : "obj-83",
					"maxclass" : "newobj",
					"numinlets" : 1,
					"numoutlets" : 0,
					"patching_rect" : [ 415.4914710521698, 404.467881321907043, 135.0, 22.0 ],
					"text" : "udpsend localhost 7700"
				}

			}
, 			{
				"box" : 				{
					"id" : "obj-84",
					"maxclass" : "message",
					"numinlets" : 2,
					"numoutlets" : 1,
					"outlettype" : [ "" ],
					"patching_rect" : [ 415.4914710521698, 280.467881321907043, 29.5, 22.0 ],
					"text" : "255"
				}

			}
, 			{
				"box" : 				{
					"id" : "obj-85",
					"maxclass" : "message",
					"numinlets" : 2,
					"numoutlets" : 1,
					"outlettype" : [ "" ],
					"patching_rect" : [ 415.4914710521698, 335.467881321907043, 131.0, 22.0 ],
					"text" : "/jeuLumiere/lumiere $1"
				}

			}
, 			{
				"box" : 				{
					"id" : "obj-86",
					"maxclass" : "message",
					"numinlets" : 2,
					"numoutlets" : 1,
					"outlettype" : [ "" ],
					"patching_rect" : [ 299.4914710521698, 274.467881321907043, 69.0, 22.0 ],
					"text" : "/scene vide"
				}

			}
, 			{
				"box" : 				{
					"id" : "obj-7",
					"maxclass" : "comment",
					"numinlets" : 1,
					"numoutlets" : 0,
					"patching_rect" : [ 126.807349920272827, 181.257356882095337, 344.315776586532593, 20.0 ],
					"presentation_linecount" : 2,
					"text" : "Division en bang vers le obs, la lumiere et cellulaire ado"
				}

			}
, 			{
				"box" : 				{
					"id" : "obj-3",
					"maxclass" : "newobj",
					"numinlets" : 1,
					"numoutlets" : 3,
					"outlettype" : [ "bang", "bang", "bang" ],
					"patching_rect" : [ 484.702072978019714, 180.257356882095337, 42.0, 22.0 ],
					"text" : "t b b b"
				}

			}
, 			{
				"box" : 				{
					"id" : "obj-1",
					"maxclass" : "button",
					"numinlets" : 1,
					"numoutlets" : 1,
					"outlettype" : [ "bang" ],
					"parameter_enable" : 0,
					"patching_rect" : [ 484.702072978019714, 127.415254473686218, 24.0, 24.0 ]
				}

			}
, 			{
				"box" : 				{
					"bgcolor" : [ 1.0, 0.392156862745098, 0.0, 1.0 ],
					"id" : "obj-2",
					"maxclass" : "comment",
					"numinlets" : 1,
					"numoutlets" : 0,
					"patching_rect" : [ 407.702072978019714, 89.362621426582336, 178.0, 20.0 ],
					"text" : "Recevoir un bang de la kinect"
				}

			}
 ],
		"lines" : [ 			{
				"patchline" : 				{
					"destination" : [ "obj-3", 0 ],
					"source" : [ "obj-1", 0 ]
				}

			}
, 			{
				"patchline" : 				{
					"destination" : [ "obj-79", 0 ],
					"source" : [ "obj-105", 0 ]
				}

			}
, 			{
				"patchline" : 				{
					"destination" : [ "obj-160", 0 ],
					"source" : [ "obj-12", 0 ]
				}

			}
, 			{
				"patchline" : 				{
					"destination" : [ "obj-145", 0 ],
					"source" : [ "obj-135", 0 ]
				}

			}
, 			{
				"patchline" : 				{
					"destination" : [ "obj-20", 0 ],
					"source" : [ "obj-14", 0 ]
				}

			}
, 			{
				"patchline" : 				{
					"destination" : [ "obj-25", 0 ],
					"source" : [ "obj-145", 0 ]
				}

			}
, 			{
				"patchline" : 				{
					"destination" : [ "obj-31", 0 ],
					"source" : [ "obj-145", 1 ]
				}

			}
, 			{
				"patchline" : 				{
					"destination" : [ "obj-171", 0 ],
					"source" : [ "obj-159", 0 ]
				}

			}
, 			{
				"patchline" : 				{
					"destination" : [ "obj-157", 0 ],
					"source" : [ "obj-160", 2 ]
				}

			}
, 			{
				"patchline" : 				{
					"destination" : [ "obj-162", 0 ],
					"source" : [ "obj-160", 0 ]
				}

			}
, 			{
				"patchline" : 				{
					"destination" : [ "obj-167", 0 ],
					"source" : [ "obj-160", 1 ]
				}

			}
, 			{
				"patchline" : 				{
					"destination" : [ "obj-14", 0 ],
					"midpoints" : [ 1656.978281021118164, 1443.0, 1644.0, 1443.0, 1644.0, 1323.0, 1461.0, 1323.0, 1461.0, 1287.0, 1484.662492036819458, 1287.0 ],
					"source" : [ "obj-162", 0 ]
				}

			}
, 			{
				"patchline" : 				{
					"destination" : [ "obj-169", 0 ],
					"source" : [ "obj-167", 0 ]
				}

			}
, 			{
				"patchline" : 				{
					"destination" : [ "obj-168", 0 ],
					"source" : [ "obj-169", 0 ]
				}

			}
, 			{
				"patchline" : 				{
					"destination" : [ "obj-174", 0 ],
					"source" : [ "obj-171", 0 ]
				}

			}
, 			{
				"patchline" : 				{
					"destination" : [ "obj-175", 0 ],
					"source" : [ "obj-171", 1 ]
				}

			}
, 			{
				"patchline" : 				{
					"destination" : [ "obj-196", 0 ],
					"source" : [ "obj-174", 0 ]
				}

			}
, 			{
				"patchline" : 				{
					"destination" : [ "obj-190", 0 ],
					"source" : [ "obj-183", 0 ]
				}

			}
, 			{
				"patchline" : 				{
					"destination" : [ "obj-191", 0 ],
					"source" : [ "obj-183", 1 ]
				}

			}
, 			{
				"patchline" : 				{
					"destination" : [ "obj-183", 0 ],
					"source" : [ "obj-188", 0 ]
				}

			}
, 			{
				"patchline" : 				{
					"destination" : [ "obj-214", 0 ],
					"source" : [ "obj-190", 0 ]
				}

			}
, 			{
				"patchline" : 				{
					"destination" : [ "obj-167", 0 ],
					"midpoints" : [ 1802.096682906150818, 1902.0, 1787.36842668056488, 1902.0, 1787.36842668056488, 1761.0, 1702.473703622817993, 1761.0, 1702.473703622817993, 1698.0, 1702.421069025993347, 1698.0, 1702.421069025993347, 1410.0, 1715.478277921676636, 1410.0 ],
					"source" : [ "obj-192", 0 ]
				}

			}
, 			{
				"patchline" : 				{
					"destination" : [ "obj-195", 0 ],
					"source" : [ "obj-193", 0 ]
				}

			}
, 			{
				"patchline" : 				{
					"destination" : [ "obj-194", 0 ],
					"source" : [ "obj-195", 0 ]
				}

			}
, 			{
				"patchline" : 				{
					"destination" : [ "obj-179", 0 ],
					"source" : [ "obj-196", 3 ]
				}

			}
, 			{
				"patchline" : 				{
					"destination" : [ "obj-188", 0 ],
					"source" : [ "obj-196", 2 ]
				}

			}
, 			{
				"patchline" : 				{
					"destination" : [ "obj-192", 0 ],
					"source" : [ "obj-196", 0 ]
				}

			}
, 			{
				"patchline" : 				{
					"destination" : [ "obj-193", 0 ],
					"source" : [ "obj-196", 1 ]
				}

			}
, 			{
				"patchline" : 				{
					"destination" : [ "obj-18", 0 ],
					"source" : [ "obj-20", 0 ]
				}

			}
, 			{
				"patchline" : 				{
					"destination" : [ "obj-215", 0 ],
					"source" : [ "obj-206", 0 ]
				}

			}
, 			{
				"patchline" : 				{
					"destination" : [ "obj-208", 0 ],
					"source" : [ "obj-209", 0 ]
				}

			}
, 			{
				"patchline" : 				{
					"destination" : [ "obj-213", 0 ],
					"source" : [ "obj-211", 0 ]
				}

			}
, 			{
				"patchline" : 				{
					"destination" : [ "obj-212", 0 ],
					"source" : [ "obj-213", 0 ]
				}

			}
, 			{
				"patchline" : 				{
					"destination" : [ "obj-206", 0 ],
					"source" : [ "obj-214", 2 ]
				}

			}
, 			{
				"patchline" : 				{
					"destination" : [ "obj-211", 0 ],
					"source" : [ "obj-214", 1 ]
				}

			}
, 			{
				"patchline" : 				{
					"destination" : [ "obj-217", 0 ],
					"source" : [ "obj-214", 0 ]
				}

			}
, 			{
				"patchline" : 				{
					"destination" : [ "obj-195", 0 ],
					"midpoints" : [ 2025.815669655799866, 2202.0, 2013.0, 2202.0, 2013.0, 2052.0, 1944.0, 2052.0, 1944.0, 2001.0, 2025.0, 2001.0, 2025.0, 1911.0, 1882.872985482215881, 1911.0 ],
					"source" : [ "obj-217", 0 ]
				}

			}
, 			{
				"patchline" : 				{
					"destination" : [ "obj-12", 0 ],
					"source" : [ "obj-22", 2 ]
				}

			}
, 			{
				"patchline" : 				{
					"destination" : [ "obj-14", 0 ],
					"source" : [ "obj-22", 1 ]
				}

			}
, 			{
				"patchline" : 				{
					"destination" : [ "obj-21", 0 ],
					"source" : [ "obj-22", 3 ]
				}

			}
, 			{
				"patchline" : 				{
					"destination" : [ "obj-23", 0 ],
					"source" : [ "obj-22", 0 ]
				}

			}
, 			{
				"patchline" : 				{
					"destination" : [ "obj-57", 0 ],
					"midpoints" : [ 1427.978315114974976, 1308.0, 1413.0, 1308.0, 1413.0, 1131.0, 1320.0, 1131.0, 1320.0, 1002.0, 1333.004605293273926, 1002.0 ],
					"source" : [ "obj-23", 0 ]
				}

			}
, 			{
				"patchline" : 				{
					"destination" : [ "obj-22", 0 ],
					"source" : [ "obj-25", 0 ]
				}

			}
, 			{
				"patchline" : 				{
					"destination" : [ "obj-82", 0 ],
					"source" : [ "obj-3", 2 ]
				}

			}
, 			{
				"patchline" : 				{
					"destination" : [ "obj-84", 0 ],
					"source" : [ "obj-3", 1 ]
				}

			}
, 			{
				"patchline" : 				{
					"destination" : [ "obj-86", 0 ],
					"source" : [ "obj-3", 0 ]
				}

			}
, 			{
				"patchline" : 				{
					"destination" : [ "obj-38", 0 ],
					"source" : [ "obj-33", 0 ]
				}

			}
, 			{
				"patchline" : 				{
					"destination" : [ "obj-70", 0 ],
					"source" : [ "obj-33", 1 ]
				}

			}
, 			{
				"patchline" : 				{
					"destination" : [ "obj-64", 0 ],
					"source" : [ "obj-38", 0 ]
				}

			}
, 			{
				"patchline" : 				{
					"destination" : [ "obj-68", 0 ],
					"midpoints" : [ 1252.228302717208862, 990.0, 1035.0, 990.0, 1035.0, 828.0, 1056.0, 828.0, 1056.0, 756.0, 1068.570412874221802, 756.0 ],
					"source" : [ "obj-47", 0 ]
				}

			}
, 			{
				"patchline" : 				{
					"destination" : [ "obj-57", 0 ],
					"source" : [ "obj-48", 0 ]
				}

			}
, 			{
				"patchline" : 				{
					"destination" : [ "obj-49", 0 ],
					"source" : [ "obj-57", 0 ]
				}

			}
, 			{
				"patchline" : 				{
					"destination" : [ "obj-135", 0 ],
					"source" : [ "obj-64", 2 ]
				}

			}
, 			{
				"patchline" : 				{
					"destination" : [ "obj-177", 0 ],
					"source" : [ "obj-64", 3 ]
				}

			}
, 			{
				"patchline" : 				{
					"destination" : [ "obj-47", 0 ],
					"source" : [ "obj-64", 0 ]
				}

			}
, 			{
				"patchline" : 				{
					"destination" : [ "obj-48", 0 ],
					"source" : [ "obj-64", 1 ]
				}

			}
, 			{
				"patchline" : 				{
					"destination" : [ "obj-68", 0 ],
					"source" : [ "obj-66", 0 ]
				}

			}
, 			{
				"patchline" : 				{
					"destination" : [ "obj-67", 0 ],
					"source" : [ "obj-68", 0 ]
				}

			}
, 			{
				"patchline" : 				{
					"destination" : [ "obj-77", 0 ],
					"midpoints" : [ 984.952041983604431, 749.578941822052002, 945.0, 749.578941822052002, 945.0, 465.0, 798.070412874221802, 465.0 ],
					"source" : [ "obj-69", 0 ]
				}

			}
, 			{
				"patchline" : 				{
					"destination" : [ "obj-33", 0 ],
					"source" : [ "obj-71", 0 ]
				}

			}
, 			{
				"patchline" : 				{
					"destination" : [ "obj-66", 0 ],
					"source" : [ "obj-72", 1 ]
				}

			}
, 			{
				"patchline" : 				{
					"destination" : [ "obj-69", 0 ],
					"source" : [ "obj-72", 0 ]
				}

			}
, 			{
				"patchline" : 				{
					"destination" : [ "obj-71", 0 ],
					"source" : [ "obj-72", 2 ]
				}

			}
, 			{
				"patchline" : 				{
					"destination" : [ "obj-72", 0 ],
					"source" : [ "obj-73", 0 ]
				}

			}
, 			{
				"patchline" : 				{
					"destination" : [ "obj-77", 0 ],
					"source" : [ "obj-75", 0 ]
				}

			}
, 			{
				"patchline" : 				{
					"destination" : [ "obj-76", 0 ],
					"source" : [ "obj-77", 0 ]
				}

			}
, 			{
				"patchline" : 				{
					"destination" : [ "obj-105", 0 ],
					"source" : [ "obj-78", 2 ]
				}

			}
, 			{
				"patchline" : 				{
					"destination" : [ "obj-75", 0 ],
					"source" : [ "obj-78", 1 ]
				}

			}
, 			{
				"patchline" : 				{
					"destination" : [ "obj-81", 0 ],
					"source" : [ "obj-78", 0 ]
				}

			}
, 			{
				"patchline" : 				{
					"destination" : [ "obj-85", 0 ],
					"midpoints" : [ 676.675686717033386, 438.915254473686218, 590.965273857116699, 438.915254473686218, 590.965273857116699, 321.915254473686218, 424.9914710521698, 321.915254473686218 ],
					"source" : [ "obj-81", 0 ]
				}

			}
, 			{
				"patchline" : 				{
					"destination" : [ "obj-78", 0 ],
					"source" : [ "obj-82", 0 ]
				}

			}
, 			{
				"patchline" : 				{
					"destination" : [ "obj-85", 0 ],
					"source" : [ "obj-84", 0 ]
				}

			}
, 			{
				"patchline" : 				{
					"destination" : [ "obj-83", 0 ],
					"source" : [ "obj-85", 0 ]
				}

			}
 ],
		"dependency_cache" : [  ],
		"autosave" : 0,
		"selectioncolor" : [ 0.929412, 0.929412, 0.352941, 1.0 ]
	}

}
