#N canvas -7 0 1231 1041 12;
#X obj 48 75 netreceive -u -b;
#X text 187 75 en max = udpreceive;
#X obj 48 100 oscparse;
#X obj 47 164 route zones;
#X obj 47 194 route presence;
#X obj 48 124 list trim;
#X obj 47 231 list prepend set;
#X obj 47 255 list trim;
#X floatatom 229 168 5 0 0 0 - - -;
#X obj 235 121 list split 1;
#X obj 297 423 netsend -u -b;
#X obj 579 49 loadbang;
#X obj 230 243 oscformat z1;
#X msg 47 316 0;
#X obj 381 330 loadbang;
#X msg 382 365 connect localhost 7700;
#X msg 50 31 listen 54321;
#X msg 360 306 disconnect;
#X connect 0 0 2 0;
#X connect 2 0 5 0;
#X connect 3 0 4 0;
#X connect 4 0 6 0;
#X connect 4 0 9 0;
#X connect 5 0 3 0;
#X connect 6 0 7 0;
#X connect 7 0 13 0;
#X connect 8 0 12 0;
#X connect 9 0 8 0;
#X connect 11 0 16 0;
#X connect 12 0 10 0;
#X connect 14 0 15 0;
#X connect 15 0 10 0;
#X connect 16 0 0 0;
#X connect 17 0 10 0;
