#N canvas 955 109 1156 652 10;
#X msg 13 5 listen 54321;
#X obj 14 53 netreceive -u -b;
#X obj 14 82 oscparse;
#X obj 13 111 list trim;
#X obj 14 137 route zones;
#X obj 13 168 route presence;
#X obj 13 194 list prepend set;
#X obj 13 233 list trim;
#X msg 12 282 0 0 0 0 0 0 0 0 0 0 0 0;
#X obj 366 162 loadbang;
#X obj 185 92 change;
#X obj 185 66 tgl 15 0 empty empty empty 17 7 0 10 -262144 -1 -1 0
1;
#X obj 184 38 list split 1;
#X obj 185 145 oscformat /lx/1;
#X obj 185 230 netsend -u -b;
#X msg 366 196 connect localhost 7700;
#X connect 0 0 1 0;
#X connect 1 0 2 0;
#X connect 2 0 3 0;
#X connect 3 0 4 0;
#X connect 4 0 5 0;
#X connect 5 0 6 0;
#X connect 6 0 7 0;
#X connect 7 0 8 0;
#X connect 9 0 15 0;
#X connect 10 0 13 0;
#X connect 11 0 10 0;
#X connect 12 0 11 0;
#X connect 13 0 14 0;
#X connect 15 0 14 0;
